<svg xmlns="http://www.w3.org/2000/svg" fill="none" width="18" height="18" viewBox="0 0 20 20"><g><path d="m10.1642 5.1017c-.0626-.1356-.25531-.1356-.31785 0l-.71636 1.55306c-.02549.05526-.07786.09331-.1383.10048l-1.69841.20137c-.14829.01759-.20785.20088-.09821.30227l1.25567 1.16121c.04469.04132.06469.10289.05283.16259l-.33332 1.67752c-.0291.1465.12682.2597.25712.1868l1.49241-.83539c.05311-.02972.11782-.02972.17092 0l1.4924.83539c.1303.0729.2863-.0403.2572-.1868l-.3334-1.67752c-.0118-.0597.0082-.12127.0529-.16259l1.2556-1.16121c.1097-.10139.0501-.28468-.0982-.30227l-1.6984-.20137c-.0604-.00717-.1128-.04522-.1383-.10048z"/><path d="m16 8c0 1.777-.7725 3.3736-2 4.4722v5.028c0 .1782-.0949.343-.249.4325-.1542.0894-.3443.09-.4991.0016l-3.2519-1.8582-3.25193 1.8582c-.15475.0884-.34488.0878-.49903-.0016-.15416-.0895-.24904-.2543-.24904-.4325v-5.028c-1.2275-1.0986-2-2.6952-2-4.4722 0-3.31371 2.68629-6 6-6 3.3137 0 6 2.68629 6 6zm-6 6c-1.09286 0-2.11748-.2922-3-.8027v3.4413l2.75193-1.5725c.15372-.0879.34247-.0879.49617 0l2.7519 1.5725v-3.4413c-.8825.5105-1.9071.8027-3 .8027zm0-1c2.7614 0 5-2.2386 5-5 0-2.76142-2.2386-5-5-5-2.76142 0-5 2.23858-5 5 0 2.7614 2.23858 5 5 5z"/></g></svg>