<?xml version="1.0" standalone="no"?>
<!DOCTYPE svg PUBLIC "-//W3C//DTD SVG 20010904//EN"
 "http://www.w3.org/TR/2001/REC-SVG-20010904/DTD/svg10.dtd">
<svg version="1.0" xmlns="http://www.w3.org/2000/svg"
 width="700.000000pt" height="700.000000pt" viewBox="0 0 700.000000 700.000000"
 preserveAspectRatio="xMidYMid meet">
<metadata>
Created by potrace 1.14, written by Peter Selinger 2001-2017
</metadata>
<g transform="translate(0.000000,700.000000) scale(0.100000,-0.100000)"
fill="#000000" stroke="none">
<path d="M2499 5166 c-2 -2 -26 -6 -54 -10 -61 -7 -139 -22 -183 -35 -18 -5
-35 -10 -37 -10 -19 1 -186 -61 -261 -97 -82 -38 -241 -128 -254 -143 -3 -3
-32 -26 -65 -51 -56 -41 -221 -201 -272 -263 -37 -45 -138 -198 -173 -262 -67
-126 -146 -344 -164 -455 -3 -19 -8 -46 -11 -60 -3 -14 -8 -41 -11 -60 -4 -19
-7 -417 -8 -884 -1 -883 -1 -892 41 -938 58 -64 180 -69 237 -9 l27 28 1 314
c1 290 2 311 17 289 27 -40 79 -101 149 -173 69 -72 244 -217 260 -217 6 0 12
-4 14 -8 3 -9 59 -42 158 -94 120 -63 334 -137 450 -154 19 -3 41 -7 48 -9 64
-22 411 -22 508 -1 12 2 39 7 59 10 21 4 75 16 119 27 100 26 79 27 201 -5 60
-16 134 -30 230 -42 65 -8 286 -8 350 0 466 60 862 282 1133 636 31 41 60 77
65 78 4 2 7 10 7 18 0 8 3 14 8 14 4 0 12 10 18 23 6 12 27 49 46 82 65 114
147 327 162 420 4 21 8 41 11 45 3 4 7 29 10 56 4 26 9 53 13 58 3 6 5 374 4
819 -1 444 1 807 6 807 4 0 7 -49 7 -110 -1 -70 3 -111 9 -112 6 0 144 -2 306
-3 l295 -1 5 90 c3 50 4 160 2 244 l-3 152 -303 0 c-234 0 -305 -3 -308 -12
-2 -7 -4 -64 -4 -125 1 -62 -2 -113 -6 -113 -3 0 -7 50 -7 112 -1 65 -6 117
-12 125 -17 19 -57 16 -69 -6 -6 -13 -10 -202 -11 -543 l0 -523 -27 65 c-60
142 -181 343 -262 431 -141 154 -256 254 -381 330 -30 19 -64 39 -75 46 -22
14 -96 50 -174 85 -30 14 -89 35 -130 48 -41 12 -86 26 -100 31 -14 5 -43 11
-65 14 -22 4 -48 9 -58 12 -43 12 -122 17 -287 17 -173 1 -256 -6 -318 -23
-18 -5 -32 -8 -32 -6 0 2 -18 -2 -40 -10 -22 -8 -40 -12 -40 -10 0 2 -19 -2
-41 -10 -34 -12 -50 -13 -83 -3 -57 16 -58 16 -86 22 -14 3 -45 10 -70 15 -25
6 -61 13 -80 17 -38 7 -405 16 -411 10z m1406 -110 c34 -5 78 -13 115 -22 14
-3 35 -7 48 -10 46 -9 187 -56 200 -66 6 -6 12 -8 12 -5 0 11 200 -94 276
-144 163 -108 311 -253 425 -417 55 -79 149 -252 149 -274 0 -9 3 -18 8 -20
14 -6 71 -194 93 -308 23 -120 31 -344 16 -462 -23 -192 -104 -438 -190 -583
-32 -55 -103 -162 -114 -173 -7 -7 -13 -17 -13 -22 0 -15 -222 -234 -285 -281
-89 -67 -199 -133 -296 -178 -80 -37 -250 -94 -309 -105 -14 -2 -36 -7 -50
-10 -67 -15 -108 -18 -265 -21 -111 -2 -201 2 -260 11 -125 19 -129 22 -70 47
28 12 61 29 75 38 14 9 50 31 80 49 164 100 312 238 460 426 46 59 156 252
152 267 -1 4 2 7 7 7 8 0 18 24 27 64 3 11 9 25 14 31 29 34 93 281 107 410 9
81 8 347 0 413 -42 304 -161 587 -346 822 -104 132 -306 311 -436 385 -27 16
-52 32 -55 35 -3 3 -33 18 -67 34 -35 16 -61 31 -59 33 2 2 16 6 32 9 16 3 36
7 44 9 8 2 44 7 80 11 36 3 67 8 69 10 5 4 286 -5 326 -10z m-1266 -265 c-191
-163 -334 -347 -439 -566 -51 -106 -111 -273 -124 -345 -3 -14 -5 -25 -6 -25
-3 0 -18 -95 -26 -170 -9 -78 -9 -262 -1 -346 6 -55 19 -133 42 -244 3 -12 13
-46 24 -78 11 -31 18 -57 15 -57 -3 0 2 -10 10 -22 9 -12 16 -28 16 -36 0 -23
105 -226 155 -301 17 -24 35 -51 40 -59 56 -85 206 -246 293 -314 35 -27 49
-44 41 -49 -7 -4 -17 -6 -23 -4 -6 2 -49 6 -96 10 -47 3 -92 7 -100 9 -8 1
-33 6 -55 10 -56 11 -194 52 -241 73 -21 9 -41 17 -44 18 -23 5 -196 105 -233
135 -206 165 -315 294 -410 485 -61 123 -91 213 -123 370 -6 31 -18 176 -18
220 1 61 12 209 18 226 3 8 7 28 9 44 12 79 77 271 109 317 10 14 18 31 18 37
0 25 145 223 217 297 126 129 219 198 369 272 139 70 272 110 419 128 28 4 51
7 52 8 1 1 35 2 74 3 l73 1 -55 -47z m416 -10 c125 -32 337 -145 450 -240 40
-34 163 -157 198 -199 120 -142 231 -380 268 -577 32 -170 29 -428 -7 -547 -3
-9 -7 -25 -9 -35 -20 -98 -144 -383 -166 -383 -5 0 -9 -5 -9 -10 0 -14 -73
-113 -124 -169 -39 -42 -70 -72 -142 -136 -55 -49 -62 -54 -68 -48 -3 4 -6 2
-6 -4 0 -12 -123 -89 -205 -127 -96 -45 -246 -95 -308 -102 -18 -2 -41 -5 -52
-7 -19 -4 -76 27 -83 45 -2 4 -10 8 -17 8 -7 0 -15 3 -17 8 -1 4 -25 25 -53
47 -74 60 -159 147 -231 239 -36 44 -69 86 -74 93 -6 7 -10 15 -10 18 0 4 -13
25 -28 48 -102 151 -194 425 -217 647 -11 106 -6 309 11 400 2 14 7 41 10 60
19 119 117 390 148 412 6 4 7 8 3 8 -5 0 1 13 12 29 12 16 21 32 21 35 0 17
121 184 185 255 78 87 179 177 266 236 l61 41 77 -17 c42 -10 94 -22 116 -28z"/>
</g>
</svg>
