<svg xmlns="http://www.w3.org/2000/svg" xmlns:xlink="http://www.w3.org/1999/xlink" zoomAndPan="magnify" viewBox="0 0 525 400.499988" preserveAspectRatio="xMidYMid meet" version="1.0"><defs><clipPath id="fe3a766c74"><path d="M 152.566406 74.90625 L 402.003906 74.90625 L 402.003906 324.34375 L 152.566406 324.34375 Z M 152.566406 74.90625 " clip-rule="nonzero"/></clipPath><clipPath id="e2a297ab57"><path d="M 75.234375 74.90625 L 324.671875 74.90625 L 324.671875 324.34375 L 75.234375 324.34375 Z M 75.234375 74.90625 " clip-rule="nonzero"/></clipPath><clipPath id="977c579d4f"><path d="M 75.234375 176.152344 L 99 176.152344 L 99 325 L 75.234375 325 Z M 75.234375 176.152344 " clip-rule="nonzero"/></clipPath><clipPath id="0c71552b01"><path d="M 87.796875 176.152344 C 91.128906 176.152344 94.324219 177.472656 96.679688 179.832031 C 99.035156 182.1875 100.359375 185.382812 100.359375 188.714844 L 100.359375 312.007812 C 100.359375 315.339844 99.035156 318.535156 96.679688 320.890625 C 94.324219 323.246094 91.128906 324.570312 87.796875 324.570312 C 84.464844 324.570312 81.269531 323.246094 78.914062 320.890625 C 76.558594 318.535156 75.234375 315.339844 75.234375 312.007812 L 75.234375 188.714844 C 75.234375 185.382812 76.558594 182.1875 78.914062 179.832031 C 81.269531 177.472656 84.464844 176.152344 87.796875 176.152344 " clip-rule="nonzero"/></clipPath><clipPath id="068e97f826"><path d="M 394.410156 74.9375 L 402 74.9375 L 402 199.890625 L 394.410156 199.890625 Z M 394.410156 74.9375 " clip-rule="nonzero"/></clipPath><clipPath id="31d954a26d"><path d="M 397.894531 74.9375 C 399.820312 74.9375 401.378906 76.496094 401.378906 78.421875 L 401.378906 196.222656 C 401.378906 198.148438 399.820312 199.707031 397.894531 199.707031 C 395.972656 199.707031 394.410156 198.148438 394.410156 196.222656 L 394.410156 78.421875 C 394.410156 76.496094 395.972656 74.9375 397.894531 74.9375 " clip-rule="nonzero"/></clipPath><clipPath id="2e73e4a81f"><path d="M 402.230469 74.9375 L 449 74.9375 L 449 111.503906 L 402.230469 111.503906 Z M 402.230469 74.9375 " clip-rule="nonzero"/></clipPath></defs><g clip-path="url(#fe3a766c74)"><path fill="#b31942" d="M 277.285156 324.34375 C 208.382812 324.34375 152.566406 268.144531 152.566406 199.625 C 152.566406 131.105469 208.382812 74.90625 277.285156 74.90625 C 346.1875 74.90625 402.003906 130.722656 402.003906 199.625 C 402.003906 268.53125 345.804688 324.34375 277.285156 324.34375 Z M 277.285156 82.605469 C 212.617188 82.605469 160.265625 134.957031 160.265625 199.625 C 160.265625 264.296875 212.617188 316.644531 277.285156 316.644531 C 341.953125 316.644531 394.304688 264.296875 394.304688 199.625 C 394.304688 134.957031 341.570312 82.605469 277.285156 82.605469 Z M 277.285156 82.605469 " fill-opacity="1" fill-rule="nonzero"/></g><g clip-path="url(#e2a297ab57)"><path fill="#0a3161" d="M 199.953125 74.90625 C 131.046875 74.90625 75.234375 130.71875 75.234375 199.625 C 75.234375 268.53125 131.046875 324.34375 199.953125 324.34375 C 268.859375 324.34375 324.671875 268.53125 324.671875 199.625 C 324.671875 130.71875 268.859375 74.90625 199.953125 74.90625 Z M 199.953125 299.402344 C 144.828125 299.402344 100.175781 254.75 100.175781 199.625 C 100.175781 144.5 144.828125 99.851562 199.953125 99.851562 C 255.078125 99.851562 299.726562 144.5 299.726562 199.625 C 299.726562 254.75 255.078125 299.402344 199.953125 299.402344 Z M 199.953125 299.402344 " fill-opacity="1" fill-rule="nonzero"/></g><g clip-path="url(#977c579d4f)"><g clip-path="url(#0c71552b01)"><path fill="#0a3161" d="M 75.234375 176.152344 L 98.375 176.152344 L 98.375 324.242188 L 75.234375 324.242188 Z M 75.234375 176.152344 " fill-opacity="1" fill-rule="nonzero"/></g></g><g clip-path="url(#068e97f826)"><g clip-path="url(#31d954a26d)"><path fill="#b31942" d="M 394.410156 74.9375 L 403.667969 74.9375 L 403.667969 199.890625 L 394.410156 199.890625 Z M 394.410156 74.9375 " fill-opacity="1" fill-rule="nonzero"/></g></g><g clip-path="url(#2e73e4a81f)"><path fill="#333333" d="M 402.230469 74.9375 L 448.507812 74.9375 L 448.507812 111.960938 L 402.230469 111.960938 Z M 402.230469 74.9375 " fill-opacity="1" fill-rule="nonzero"/></g></svg>